<?xml version="1.0" encoding="utf-8"?>
<!-- Generator: Adobe Illustrator 25.4.1, SVG Export Plug-In . SVG Version: 6.00 Build 0)  -->
<svg version="1.1"
	 id="Capa_1" xmlns:cc="http://creativecommons.org/ns#" xmlns:dc="http://purl.org/dc/elements/1.1/" xmlns:rdf="http://www.w3.org/1999/02/22-rdf-syntax-ns#"
	 xmlns="http://www.w3.org/2000/svg" xmlns:xlink="http://www.w3.org/1999/xlink" x="0px" y="0px" viewBox="0 0 44.5 70.6"
	 style="enable-background:new 0 0 44.5 70.6;" xml:space="preserve">
<style type="text/css">
	.st0{fill:#F68212;}
</style>
<g>
	<path class="st0" d="M42.8,39.7c-0.5-1.1-1-2.1-1.6-3.1V18.9c0-5-2-9.8-5.5-13.3C32.1,2,27.3,0,22.3,0c0,0,0,0,0,0
		c-5,0-9.8,2-13.3,5.5c-3.6,3.6-5.5,8.3-5.5,13.3v2.6H11v-2.6c0-3,1.2-5.9,3.3-8c2.1-2.1,5-3.3,8-3.3c0,0,0,0,0,0
		c6.2,0,11.3,5.1,11.3,11.3v10.3c-0.9-0.5-1.8-1-2.7-1.4c-2.7-1.2-5.7-1.8-8.7-1.8c-3,0-5.9,0.6-8.7,1.8c-2.7,1.1-5,2.7-7.1,4.8
		c-2,2-3.6,4.4-4.8,7.1C0.6,42.4,0,45.3,0,48.3c0,3,0.6,5.9,1.8,8.7c1.1,2.7,2.7,5,4.8,7.1c2,2,4.4,3.6,7.1,4.8
		c2.7,1.2,5.7,1.8,8.7,1.8c3,0,5.9-0.6,8.7-1.8c2.7-1.1,5-2.7,7.1-4.8c2-2,3.6-4.4,4.8-7.1c1.2-2.7,1.8-5.7,1.8-8.7
		C44.5,45.3,43.9,42.4,42.8,39.7z M22.3,63c-8.1,0-14.7-6.6-14.7-14.7s6.6-14.7,14.7-14.7S37,40.2,37,48.3S30.4,63,22.3,63z"/>
	<circle class="st0" cx="22.3" cy="48.4" r="6.2"/>
</g>
</svg>
