<?xml version="1.0" encoding="utf-8"?>
<!-- Generator: Adobe Illustrator 26.3.1, SVG Export Plug-In . SVG Version: 6.00 Build 0)  -->
<svg version="1.0" id="Capa_1" xmlns="http://www.w3.org/2000/svg" xmlns:xlink="http://www.w3.org/1999/xlink" x="0px" y="0px"
	 viewBox="0 0 180 148.37" enable-background="new 0 0 180 148.37" xml:space="preserve">
<g>
	<path d="M135.456,93.402c-5.205,0-10.411,0-15.616,0c5.275-1.213,4.389-5.365,4.418-9.008c0.041-5.368,0.03-10.736,0.004-16.104
		c-0.022-4.472-0.495-5.156-4.413-7.288c3.786,0,7.664-0.464,11.306,0.26c1.218,0.242,1.954,0.161,2.816-0.231
		c4.808-2.185,9.356-1.552,12.927,2.273c1.284,1.375,1.79,1.03,2.947,0.016c4.42-3.875,9.444-4.589,13.935-2.061
		c3.805,2.142,5.565,5.532,5.593,9.834c0.036,5.583-0.027,11.166,0.039,16.748c0.02,1.727-0.001,3.907,2.774,2.035
		c0.411-0.277,0.806-0.376,1.107,0.039c0.39,0.539,0.01,0.98-0.31,1.416c-1.588,2.16-3.637,3.398-6.368,2.792
		c-3.003-0.667-4.613-2.724-4.673-5.749c-0.105-5.366-0.018-10.736-0.057-16.103c-0.009-1.278-0.031-2.597-0.335-3.825
		c-0.805-3.248-3.267-4.835-6.484-4.36c-3.273,0.483-5.118,2.546-5.123,5.789c-0.012,6.978,0.031,13.957-0.039,20.935
		c-0.012,1.148,0.733,2.854-0.909,3.331c-1.847,0.536-3.644-0.071-4.865-1.702c-1.233-1.647-1.223-3.631-1.238-5.557
		c-0.044-5.582,0.118-11.17-0.077-16.746c-0.176-5.031-5.205-7.708-9.486-5.271c-1.213,0.69-1.842,1.554-1.823,3.072
		c0.081,6.441,0.084,12.883,0.019,19.324C131.494,90.187,133.041,91.908,135.456,93.402z"/>
	<path fill="#2072B9" d="M48.506,4.628c3.258-0.293,6.51-0.706,9.774-0.834c1.944-0.077,1.74,1.575,1.588,2.834
		c-0.728,6.045-1.529,12.081-2.283,18.123c-0.314,2.515-0.577,5.037-0.86,7.536c1.369,0.439,1.657-0.61,2.169-1.164
		c1.915-2.072,3.994-3.866,6.706-4.852c4.672-1.699,9.131,0.062,11.301,4.531c3.095,6.374,1.232,17.884-3.719,22.966
		c-1.902,1.952-4.197,0.67-6.924,1.026c2.74-3.816,4.707-7.456,5.364-11.617c0.521-3.301,0.761-6.605-0.814-9.757
		c-1.815-3.633-4.647-4.451-7.834-1.917c-6.53,5.192-8.4,12.352-8.241,20.32c0.02,1.003,1.644,2.668-0.851,2.922
		c-1.948,0.199-4.045,0.393-4.367-2.368c-0.462-3.956-0.343-7.908,0.181-11.863c1.22-9.217,2.543-18.425,3.505-27.67
		C53.784,7.21,53.485,7.13,48.506,4.628z"/>
	<path d="M46.226,60.768c3.581,0,7.161-0.002,10.742,0.004c0.211,0,0.58,0.014,0.609,0.105c1.222,3.877,2.85,0.62,3.995,0.079
		c8.211-3.879,16.809,1.198,16.94,10.194c0.096,6.655-0.113,13.316,0.078,19.966c0.091,3.17-1.652,3.123-3.636,2.473
		c-2.965-0.972-3.907-3.445-3.915-6.353c-0.015-5.26,0.004-10.521-0.009-15.781c-0.007-3.033-0.463-5.965-3.781-7.111
		c-3.238-1.118-5.775,0.367-8.048,2.659c-1.053,1.062-1.114,2.218-1.111,3.518c0.014,5.26,0.093,10.523-0.027,15.781
		c-0.073,3.205,0.534,5.781,4.142,6.932c-5.3,0-10.601,0-15.901,0c5.341-1.234,4.356-5.486,4.388-9.196
		c0.046-5.26,0.025-10.521,0.008-15.781C50.684,63.361,50.407,62.968,46.226,60.768z"/>
	<path d="M26.768,60.927c3.371,0,6.743-0.001,10.114,0c1.809,0.001,1.289,1.391,1.293,2.329c0.036,7.617,0.063,15.234,0.001,22.851
		c-0.027,3.311-0.004,6.457,4.947,6.611c-0.189,0.328-0.377,0.657-0.566,0.985c-3.63,0-8.13,1.316-10.657-0.354
		c-2.762-1.826-3.676-0.167-5.233,0.48c-8.116,3.373-16.19-1.761-16.292-10.5c-0.064-5.471,0.025-10.943-0.04-16.414
		c-0.018-1.523,0.281-3.739-2.546-2.305c-0.447,0.227-0.897,0.167-1.122-0.226c-0.299-0.522-0.022-1.042,0.343-1.453
		c1.651-1.855,3.535-3.118,6.197-2.433c2.858,0.735,4.43,2.575,4.475,5.505c0.078,5.041-0.006,10.085,0.05,15.126
		c0.018,1.6,0.138,3.22,0.428,4.791c0.587,3.179,2.822,4.866,5.922,4.653c3.215-0.221,6.588-3.107,6.619-5.861
		c0.067-5.9-0.038-11.802,0.04-17.701c0.039-2.917-1.405-4.548-4.355-5.15C26.514,61.551,26.641,61.239,26.768,60.927z"/>
	<path d="M91.455,61.007c5.165,0,10.33,0,15.971,0c-1.132,1.452-3.178,1.318-3.356,3.079c-0.16,1.586,0.675,2.902,1.152,4.301
		c2.073,6.085,4.284,12.124,6.299,18.228c1.014,3.071,2.254,5.753,5.858,6.716c-5.245,0-10.491,0-15.736,0
		c3.808-1.311,3.237-3.85,2.236-6.716c-0.546-1.565-1.297-2.256-2.987-2.141c-1.923,0.13-3.862,0.027-5.795,0.029
		c-3.559,0.003-5.249,1.756-5.397,5.292c-0.096,2.306,1.924,2.379,4.12,3.655c-4.976,0-8.951,0-12.926,0
		c4.702-1.059,5.272-5.143,6.558-8.611c2.086-5.625,4.055-11.293,6.142-16.918C94.645,65.09,95.477,62.441,91.455,61.007z
		 M97.17,68.369c-0.97,2.67-1.691,4.676-2.428,6.677c-2.958,8.029-2.964,7.985,5.607,7.19c1.626-0.151,1.688-0.639,1.174-1.971
		C100.101,76.577,98.798,72.844,97.17,68.369z"/>
	<path fill="#2072B9" d="M132.203,54.432c3.05-6.451,4.959-12.835,3.496-19.753c-0.605-2.861-1.528-5.65-4.941-6.43
		c-3.329-0.761-5.297,1.35-6.885,3.635c-4.207,6.052-4.595,12.938-3.891,19.993c0.1,0.998,1.436,2.597-0.412,2.759
		c-1.757,0.154-4.135,1.322-5.39-1.305c-1.554-3.254-1.478-6.738-0.942-10.089c1.176-7.359,4.69-13.336,11.729-16.543
		c8.199-3.735,15.844,0.64,17.49,9.538c0.97,5.243-0.152,9.949-2.513,14.519C137.746,55.011,137.285,55.224,132.203,54.432z"/>
	<path fill="#2072B9" d="M10.326,4.643c3.349-0.295,6.694-0.695,10.05-0.838c1.448-0.062,1.543,1.219,1.395,2.364
		c-1.836,14.184-3.681,28.368-5.512,42.553c-0.123,0.954-0.25,1.925-0.202,2.88c0.116,2.3-0.792,3.226-3.199,3.249
		c-2.338,0.022-3.067-0.805-2.769-3.017c0.983-7.297,1.921-14.599,2.853-21.903c0.77-6.032,1.591-12.06,2.226-18.107
		C15.587,7.836,14.736,6.83,10.326,4.643z"/>
	<path fill="#2072B9" d="M96.235,39.074c1.541-2.897,3.038-5.818,4.636-8.682c1.123-2.013,2.678-3.651,4.906-4.45
		c1.831-0.657,3.627-0.604,5.025,0.964c1.223,1.372,1.679,2.98,0.968,4.768c-0.842,2.117-2.544,2.532-4.318,1.078
		c-3.112-2.551-3.358-2.583-5.452,1.078c-3.258,5.693-5.673,11.783-7.304,18.111c-0.869,3.37-3.085,2.976-5.389,2.767
		c-1.847-0.167-1.32-1.745-1.206-2.779c0.68-6.158,1.446-12.307,2.23-18.453c0.176-1.382,0.747-2.883-0.418-3.965
		c-1.363-1.265-2.55,0.071-3.746,0.647c-0.556,0.268-1.205,0.833-1.675,0.084c-0.452-0.72,0.302-1.163,0.771-1.535
		c1.091-0.864,2.176-1.762,3.373-2.458c1.79-1.042,3.734-1.921,5.702-0.487c2.03,1.48,2.579,3.704,2.155,6.025
		C96.054,34.186,95.676,36.562,96.235,39.074z"/>
	<path fill="#2072B9" d="M161.887,25.522c2.995-0.257,5.609,0.704,7.463,3.272c1.056,1.464,1.226,3.15-0.329,4.285
		c-1.644,1.2-2.5-0.47-3.315-1.487c-3.177-3.968-5.609-4.889-8.122-2.951c-2.495,1.923-2.129,4.665,1.251,8.594
		c1.814,2.108,3.682,4.175,5.625,6.164c1.955,2,3.017,4.435,3.498,7.087c0.298,1.644,0.374,3.619-1.76,4.217
		c-1.979,0.555-3.417-0.097-3.919-2.428c-0.389-1.805-1.73-3.157-2.982-4.494c-1.828-1.953-3.665-3.901-5.413-5.925
		c-2.757-3.191-4.275-6.822-2.171-10.848C153.765,27.078,157.26,25.211,161.887,25.522z"/>
	<path fill="#2072B9" d="M32.377,54.722c-2.616,0.561-3.273-0.767-2.928-3.052c0.941-6.229,1.862-12.46,2.826-18.685
		c0.195-1.262,0.814-2.629-0.41-3.592c-1.258-0.99-2.388-0.043-3.513,0.588c-0.569,0.32-1.164,1.377-1.875,0.506
		c-0.636-0.78,0.237-1.365,0.787-1.813c1.077-0.877,2.181-1.733,3.343-2.491c1.804-1.176,3.734-1.709,5.718-0.43
		c2.074,1.337,2.493,3.487,2.202,5.662c-0.92,6.877-2.106,13.719-2.962,20.602C35.293,54.202,34.614,55.21,32.377,54.722z"/>
	<path fill="#2072B9" d="M37.215,20.405c-1.164-1.569-2.652-2.535-3.098-4.232c-0.165-0.627,3.733-3.932,4.148-3.604
		c1.31,1.034,3.382,2.383,2.98,3.737C40.78,17.869,38.732,18.961,37.215,20.405z"/>
	<path fill="#2072B9" d="M153.855,54.708c-1.711,0-3.125,0.189-4.463-0.049c-1.616-0.287-2.07-1.682-2.11-3.159
		c-0.023-0.84-0.069-1.777,1.064-2.033c1.408-0.317,2.126,0.544,2.812,1.586C151.914,52.202,152.786,53.272,153.855,54.708z"/>
</g>
<g>
	<path fill="#EE7D06" d="M72.561,114.588v1.55h4.551v-1.55c0-3.747,3.06-6.807,6.807-6.807c3.747,0,6.807,3.06,6.807,6.807v11.221
		h4.551v-11.221c0-6.258-5.1-11.358-11.358-11.358S72.561,108.33,72.561,114.588"/>
	<path fill="#EE7D06" d="M87.685,132.341c0,2.079-1.687,3.747-3.747,3.747c-2.079,0-3.747-1.687-3.747-3.747
		c0-2.079,1.687-3.747,3.747-3.747C85.998,128.594,87.685,130.281,87.685,132.341"/>
	<path fill="#EE7D06" d="M70.501,132.301c0,7.376,6.003,13.398,13.398,13.398c7.376,0,13.398-6.003,13.398-13.398
		c0-7.376-6.003-13.398-13.398-13.398C76.504,118.923,70.501,124.926,70.501,132.301 M75.052,132.301
		c0-4.885,3.963-8.847,8.847-8.847s8.847,3.963,8.847,8.847c0,4.865-3.963,8.847-8.847,8.847S75.052,137.186,75.052,132.301"/>
	<path fill="#EE7D06" d="M35.446,132.713c-2.687,0-4.296-2.04-4.296-4.63c0-2.727,1.765-4.786,4.433-4.786
		c2.805,0,4.335,2.099,4.335,4.61C39.939,130.909,38.134,132.713,35.446,132.713L35.446,132.713z M35.545,131.066
		c1.393,0,2.197-1.314,2.197-3.099c0-1.628-0.765-3.041-2.197-3.041c-1.412,0-2.217,1.373-2.217,3.08
		C33.328,129.732,34.152,131.066,35.545,131.066L35.545,131.066z"/>
	<path fill="#EE7D06" d="M41.763,123.572c0.628-0.118,1.53-0.196,2.786-0.196c1.275,0,2.197,0.235,2.805,0.745
		c0.588,0.451,0.961,1.197,0.961,2.099s-0.294,1.667-0.824,2.158c-0.706,0.647-1.765,0.961-2.982,0.961
		c-0.275,0-0.51-0.02-0.706-0.059v3.276h-2.04V123.572z M43.803,127.711c0.177,0.039,0.392,0.059,0.687,0.059
		c1.099,0,1.765-0.549,1.765-1.471c0-0.844-0.569-1.334-1.609-1.334c-0.412,0-0.706,0.02-0.844,0.059V127.711z"/>
	<polygon fill="#EE7D06" points="55.534,128.712 52.179,128.712 52.179,130.869 55.926,130.869 55.926,132.556 50.12,132.556 
		50.12,123.435 55.73,123.435 55.73,125.141 52.179,125.141 52.179,127.025 55.534,127.025 	"/>
	<path fill="#EE7D06" d="M58.339,132.556v-9.122h2.413l1.903,3.335c0.549,0.961,1.059,2.099,1.491,3.119h0.02
		c-0.118-1.197-0.157-2.432-0.157-3.806v-2.648h1.903v9.122h-2.158l-1.942-3.511c-0.549-0.981-1.157-2.158-1.589-3.217h-0.059
		c0.059,1.216,0.098,2.511,0.098,3.982v2.746H58.339z"/>
	<path fill="#EE7D06" d="M103.123,130.222l-0.628,2.334h-2.138l2.786-9.122h2.687l2.844,9.122h-2.217l-0.706-2.334H103.123z
		 M105.438,128.672l-0.569-1.942c-0.157-0.549-0.314-1.236-0.451-1.765h-0.039c-0.118,0.549-0.275,1.236-0.412,1.765l-0.549,1.942
		H105.438z"/>
	<path fill="#EE7D06" d="M116.443,132.321c-0.373,0.177-1.236,0.392-2.334,0.392c-3.158,0-4.786-1.981-4.786-4.59
		c0-3.119,2.217-4.826,4.983-4.826c1.059,0,1.883,0.216,2.236,0.412l-0.432,1.628c-0.412-0.177-0.981-0.333-1.726-0.333
		c-1.628,0-2.903,0.981-2.903,3.041c0,1.824,1.079,2.982,2.903,2.982c0.628,0,1.314-0.118,1.726-0.294L116.443,132.321z"/>
	<path fill="#EE7D06" d="M124.564,132.321c-0.373,0.177-1.236,0.392-2.334,0.392c-3.158,0-4.767-1.981-4.767-4.59
		c0-3.119,2.217-4.826,4.983-4.826c1.059,0,1.883,0.216,2.236,0.412l-0.432,1.609c-0.412-0.177-0.981-0.333-1.726-0.333
		c-1.628,0-2.903,0.981-2.903,3.041c0,1.824,1.079,2.982,2.903,2.982c0.628,0,1.314-0.118,1.726-0.294L124.564,132.321z"/>
	<polygon fill="#EE7D06" points="132.372,128.712 129.017,128.712 129.017,130.869 132.764,130.869 132.764,132.556 
		126.958,132.556 126.958,123.435 132.568,123.435 132.568,125.141 129.017,125.141 129.017,127.025 132.372,127.025 	"/>
	<path fill="#EE7D06" d="M135.255,130.457c0.549,0.294,1.412,0.569,2.276,0.569c0.942,0,1.452-0.392,1.452-1
		c0-0.549-0.432-0.902-1.53-1.275c-1.51-0.549-2.511-1.373-2.511-2.727c0-1.55,1.314-2.727,3.452-2.727
		c1.04,0,1.785,0.196,2.334,0.451l-0.451,1.648c-0.353-0.177-1.02-0.432-1.903-0.432c-0.902,0-1.334,0.412-1.334,0.883
		c0,0.588,0.49,0.844,1.687,1.295c1.609,0.588,2.354,1.432,2.354,2.727c0,1.53-1.157,2.825-3.668,2.825
		c-1.04,0-2.079-0.294-2.589-0.569L135.255,130.457z"/>
	<path fill="#EE7D06" d="M143.023,130.457c0.549,0.294,1.412,0.569,2.276,0.569c0.942,0,1.452-0.392,1.452-1
		c0-0.549-0.432-0.902-1.53-1.275c-1.51-0.549-2.511-1.373-2.511-2.727c0-1.55,1.314-2.727,3.452-2.727
		c1.04,0,1.785,0.196,2.334,0.451l-0.451,1.648c-0.353-0.177-1.02-0.432-1.903-0.432c-0.902,0-1.334,0.412-1.334,0.883
		c0,0.588,0.49,0.844,1.687,1.295c1.609,0.588,2.354,1.432,2.354,2.727c0,1.53-1.157,2.825-3.668,2.825
		c-1.04,0-2.079-0.294-2.589-0.569L143.023,130.457z"/>
</g>
</svg>
