<?xml version="1.0" encoding="utf-8"?>
<!-- Generator: Adobe Illustrator 26.3.1, SVG Export Plug-In . SVG Version: 6.00 Build 0)  -->
<svg version="1.0" id="Capa_1" xmlns="http://www.w3.org/2000/svg" xmlns:xlink="http://www.w3.org/1999/xlink" x="0px" y="0px"
	 viewBox="0 0 180 108.667" enable-background="new 0 0 180 108.667" xml:space="preserve">
<g>
	<path fill="#9F9D9D" d="M10.679,52.841c0.341,0.673,0.651,1.363,0.973,2.043c0.626,1.334,1.452,2.564,2.098,3.886
		c0.01,0.017,0.083,0.165,0.076,0.184c-0.341,0.97-1.383,1.641-2.38,1.705c-2.311,0.145-3.652-1.901-3.618-4.043
		C7.857,54.742,9.132,53.664,10.679,52.841 M12.585,50.975c-0.204-0.432-0.437-1.039-0.636-1.687
		c-0.403-1.213-0.533-2.569,0.14-3.296c0.302-0.327,0.675-0.54,1.39-0.543c1.294-0.005,1.791,1.393,1.791,2.439
		C15.27,49.462,13.934,50.284,12.585,50.975 M5.178,54.062c0-7.494,6.074-13.568,13.568-13.568c7.494,0,13.568,6.074,13.568,13.568
		c0,7.494-6.074,13.568-13.568,13.568c-5.065,0-9.481-2.773-11.812-6.885c0.803,0.693,1.872,1.12,3.107,1.142
		c0,0,2.913,0.251,4.453-2.043c0.803,1.083,1.822,1.862,3.225,1.837c1.378-0.027,2.235-0.341,3.117-1.481
		c0.174-0.223,0.479-0.612,0.479-0.906c0-0.199-0.152-0.422-0.368-0.422c-0.715,0-0.479,1.459-2.098,1.459
		c-0.877,0-1.552-0.609-2.039-1.285c-0.096-0.135-0.923-1.456-0.928-1.533c-0.005-0.093,0.646-1.479,1.312-2.464
		c0.398-0.589,0.818-1,1.059-1c0.425,0,0.076,1.398,1.405,1.398c0.646,0,1.093-0.368,1.093-1.036c0-0.953-0.887-1.535-1.759-1.569
		c-1.911-0.076-3.004,2.132-3.728,3.596c-0.774-1.496-1.574-3.001-2.255-4.544c1.108-0.705,2.675-1.199,3.642-2.174
		c0.508-0.511,0.901-1.147,0.847-1.989c-0.101-1.638-1.228-2.402-2.149-2.8c-0.575-0.246-1.894-0.651-3.353-0.125
		c-1.137,0.393-2.134,1.142-2.525,2.486c-0.187,0.634-0.14,0.909-0.12,1.493c0.044,1.312,0.958,3.203,0.958,3.225
		c0,0.088-2.864,1.149-4.129,2.734c-0.356,0.445-0.646,1.164-0.761,1.879C5.259,55.791,5.178,54.936,5.178,54.062"/>
	<g>
		<path fill="none" d="M133.391,28.046c0.02-1.393-0.238-2.579-0.715-3.402h0.002c-0.447-0.771-1.085-1.221-1.867-1.221
			c-0.865,0-1.628,0.462-2.267,1.226h-0.002c-0.99,1.194-1.668,3.114-1.906,5.153h-0.003c-0.059,0.501-0.091,1.009-0.096,1.518
			c0,1.474,0.275,2.785,0.842,3.64c0.427,0.636,1.017,1.017,1.776,1.017c0.776,0,1.461-0.383,2.043-1.014l0.617-0.002H131.2
			c1.063-1.154,1.776-3.146,2.058-5.153l1.931-0.005h-1.933C133.34,29.215,133.386,28.621,133.391,28.046z"/>
		<path fill="none" d="M161.321,23.386c-0.619,0-1.412,0.445-2.159,1.265h-0.002c-0.995,1.095-1.906,2.866-2.211,5.153
			c-0.007,0.044-0.012,0.086-0.017,0.128c0.157-0.042,0.309-0.086,0.462-0.133h0.002c3.299-1.027,5.234-3.151,5.234-5.104v-0.049
			h0.002C162.608,23.939,162.111,23.386,161.321,23.386z"/>
		<path fill="none" d="M128.696,51.559c-1.673,0-2.977,1.734-3.687,4.028c-0.368,1.194-0.575,2.535-0.587,3.866
			c0,2.581,0.847,4.659,2.618,4.659c2.618,0,4.197-4.35,4.237-7.933c0.002-0.201,0-0.398-0.01-0.589l2.576-0.005h-2.576
			C131.162,53.207,130.191,51.559,128.696,51.559z"/>
		<path fill="none" d="M91.896,55.58c0.747-0.845,1.145-1.768,1.145-2.655c0-0.732-0.499-1.309-1.309-1.309
			c-1.123,0-2.812,1.452-3.763,3.972c-0.287,0.766-0.508,1.626-0.626,2.577c2.024-0.545,3.578-1.493,4.549-2.584H91.896z"/>
		<path fill="#020203" d="M90.128,91.646c-0.423,0-0.884-0.27-0.769-1.118l0.634-4.006h-2.377l-0.604,3.775
			c-0.309,1.926,0.538,2.928,1.732,2.928c1.771,0,3.159-1.965,3.159-1.965l-0.31-0.462C91.591,90.799,90.705,91.646,90.128,91.646z"
			/>
		<path fill="#020203" d="M110.169,95.256c-0.423,0-0.884-0.27-0.769-1.118l0.943-7.616h-2.257l-0.921,7.386
			c-0.228,1.926,0.54,2.928,1.734,2.928c1.619,0,3.159-1.965,3.159-1.965l-0.307-0.462
			C111.751,94.409,110.749,95.256,110.169,95.256z"/>
		<path fill="#020203" d="M48.894,91.646c-0.425,0-0.887-0.27-0.771-1.118l0.634-4.006h-2.378l-0.604,3.775
			c-0.31,1.926,0.538,2.928,1.732,2.928c1.771,0,3.158-1.965,3.158-1.965l-0.309-0.462C50.355,90.799,49.471,91.646,48.894,91.646z"
			/>
		<path fill="#020203" d="M56.471,91.221c-0.462,0-0.771-0.231-0.656-1.194l0.444-3.505h-2.277l-0.516,4.045
			c-0.194,1.54,0.346,2.658,1.501,2.658c2.041,0,4.043-3.004,4.313-3.505l-0.346-0.386C58.628,89.72,57.395,91.221,56.471,91.221z"
			/>
		<path fill="#020203" d="M103.327,91.683c-0.499,0-0.769-0.462-0.653-1.309l0.491-3.851h-2.321l-0.444,4.006
			c-0.228,0.194-1.115,1.078-2.309,1.078c-1.078,0-2.004-0.693-2.004-2.117c0-1.265,0.545-2.245,1.348-2.967h-2.557
			c-0.798,0.774-1.331,1.783-1.331,3.082c0,2.387,1.655,3.581,3.387,3.581c1.582,0,2.812-1.039,3.35-1.579
			c0.115,0.462,0.464,1.619,1.773,1.619c1.464,0,3.119-1.926,3.119-1.926l-0.307-0.425
			C104.869,90.875,104.059,91.683,103.327,91.683z"/>
		<path fill="#020203" d="M66.416,92.223c-1.771,0-2.618-2.078-2.618-4.659c0.003-0.344,0.02-0.69,0.047-1.036
			c0.167-1.962,0.737-3.861,1.609-5.16h-2.105c-1.186,1.459-1.96,3.338-2.134,5.155l1.235,0.002h-1.235
			c-0.022,0.231-0.034,0.462-0.037,0.693c-0.037,3.235,1.889,5.968,4.929,5.968c3.431,0,6.17-3.272,6.944-6.664l-2.608,0.002
			C69.928,89.46,68.501,92.223,66.416,92.223z"/>
		<path fill="#020203" d="M79.153,86.987l0.064-0.464h-2.188l-0.764,6.241c0.307,0.192,0.616,0.346,1.039,0.346
			c0.386,0,0.693-0.155,1.002-0.346c0.592-2.36,1.25-4.473,1.904-6.241h-0.897C79.257,86.687,79.202,86.842,79.153,86.987z"/>
		<path fill="#020203" d="M41.72,91.683c-0.54,0-0.847-0.228-0.732-1.309l0.472-3.851h-2.277l-0.43,3.468
			c0,0-1.614,2.363-3.613,1.734c-0.921-0.287-2.554-1.518-2.586-5.202l-2.618,0.003v0.037c0,5.045,3.168,6.617,5.089,6.663
			c2.193,0.057,3.613-2.272,3.613-2.272c-0.037,1.54,0.732,2.272,1.889,2.272c1.27,0,3.08-1.926,3.08-1.926l-0.309-0.462
			C43.296,90.838,42.181,91.683,41.72,91.683z"/>
		<path fill="#020203" d="M85.198,82.056c0.366,0,0.734-0.231,0.943-0.69h-1.84C84.527,81.7,84.79,82.056,85.198,82.056z"/>
		<path fill="#020203" d="M71.104,81.364l1.434-0.002c-0.813-1.594-2.262-2.658-4.158-2.658c-1.994,0-3.751,1.088-5.03,2.66h2.105
			c0.698-1.041,1.587-1.697,2.616-1.697c0.933,0,1.658,0.638,2.1,1.697c0.329,0.779,0.496,1.783,0.481,2.928
			c-0.01,0.727-0.081,1.486-0.211,2.23h2.608c0.14-0.604,0.214-1.213,0.221-1.808c0.015-1.231-0.246-2.387-0.734-3.348
			L71.104,81.364z"/>
		<path fill="#020203" d="M77.029,86.521h2.188l0.705-5.003c0.007-0.054,0.015-0.101,0.02-0.152l-2.284,0.005
			c-0.003,0.022-0.005,0.047-0.007,0.069L77.029,86.521z"/>
		<polygon fill="#020203" points="56.916,81.366 54.641,81.366 53.983,86.521 56.26,86.521 		"/>
		<path fill="#020203" d="M89.993,86.521l0.791-5.003c0.007-0.054,0.015-0.101,0.022-0.152l-2.365,0.002
			c-0.007,0.037-0.012,0.079-0.022,0.125l-0.803,5.028H89.993z"/>
		<path fill="#020203" d="M103.165,86.521l0.658-5.155h-2.338l-0.354,2.807l-1.115,0.155c-1.587,0.221-3.758,0.857-5.138,2.193
			h2.557c0.739-0.663,1.7-1.105,2.657-1.346l0.926-0.231l-0.174,1.577H103.165z"/>
		<path fill="#020203" d="M25.654,83.523l0.629-2.157l-2.272,0.003c0.916,0.231,1.13,0.845,0.99,2.154H25.654z"/>
		<polygon fill="#020203" points="42.093,81.366 39.824,81.366 39.183,86.521 41.459,86.521 		"/>
		<polygon fill="#020203" points="110.98,81.366 108.73,81.366 108.087,86.521 110.344,86.521 		"/>
		<path fill="#020203" d="M48.756,86.521l0.791-5.003c0.007-0.054,0.015-0.101,0.022-0.152l-2.363,0.002
			c-0.007,0.037-0.015,0.079-0.022,0.125l-0.806,5.028H48.756z"/>
		<polygon fill="#020203" points="47.699,74.933 49.087,76.51 50.858,74.933 49.472,73.354 		"/>
		<path fill="#020203" d="M104.06,79.514l-0.346-0.346h-7.702l-0.759,2.198l-0.319,0.921h0.656c0.106-0.248,0.228-0.592,0.467-0.916
			h0.002c0.346-0.472,0.943-0.894,2.11-0.894h3.426l-0.11,0.889h2.341L104.06,79.514z"/>
		<g>
			<path fill="#020203" d="M22.694,91.376h-3.043c-1.385,0-1.695-0.577-1.464-2.579l0.29-2.274h-2.468l-0.324,2.542
				c-0.268,2.311-0.769,3.043-2.888,3.043l-0.076,0.656h13.671l1.464-3.89h-0.808C25.929,91.26,25.082,91.376,22.694,91.376z"/>
			<polygon fill="#020203" points="19.131,81.366 16.667,81.366 16.009,86.521 18.477,86.521 			"/>
			<path fill="#020203" d="M15.415,70.888l-0.076,0.656c2.117,0,2.387,0.732,2.117,3.043l-0.629,5.48l-0.309,0.02h-0.867
				l-0.695,1.041l1.729,0.098l-0.02,0.14h2.466l0.015-0.115h3.62c0.511,0,0.923,0.034,1.245,0.115h2.272l0.393-1.348l-7.376,0.003
				l0.889-7.783h4.698c2.351,0,2.967,0.115,3.122,2.466h0.808l0.545-3.814H15.415z"/>
		</g>
		<path fill="#020203" d="M47.205,81.366h2.365c0.241-1.827-0.592-2.775-1.756-2.775c-0.351,0-0.737,0.13-1.113,0.324
			c-0.13,0.113-0.145,0.233,0.13,0.371c0.555,0.282,0.513,1.086,0.484,1.329C47.274,80.965,47.249,81.127,47.205,81.366z"/>
		<path fill="#020203" d="M40.159,68.329c-0.341,0.251-0.535,0.496-0.246,0.616c1.054,0.445,1.297,1.398,1.297,1.398l-1.147,9.25
			c-0.462-0.27-1.233-0.811-2.965-0.811c-1.746,0-3.812,0.901-5.276,2.584l1.427,0.003l-1.427,0.002
			c-1.113,1.28-1.879,3.016-1.886,5.15l2.618-0.002v-0.11c0-2.122,0.759-3.881,1.881-5.038h0.002
			c0.914-0.938,2.063-1.471,3.237-1.471c1.078,0,1.886,0.501,2.233,0.771l-0.086,0.695h2.272l1.589-12.941l-0.346-0.346
			L40.159,68.329z"/>
		<path fill="#020203" d="M57.202,79.167l0.462-3.812c-0.152-0.116-0.346-0.194-0.538-0.194c-0.233,0-0.386,0.079-0.54,0.194
			l-1.425,3.812h-2.463c-0.386,0.194-0.656,0.732-0.58,1.157h2.657l-0.133,1.041h2.272l0.133-1.041h2.888
			c0.386-0.194,0.693-0.695,0.58-1.157H57.202z"/>
		<path fill="#020203" d="M77.656,81.366h2.287c0.206-1.827-0.592-2.775-1.754-2.775c-1.194,0-3.159,1.926-3.159,1.926l0.309,0.462
			c0,0,1.115-0.847,1.579-0.847C77.445,80.13,77.752,80.351,77.656,81.366z"/>
		<polygon fill="#020203" points="88.935,74.933 90.32,76.51 92.091,74.933 90.706,73.354 		"/>
		<path fill="#020203" d="M107.397,72.035l-0.076,0.577c2.117,0,2.348,1.078,2.117,3.043l-0.71,5.711h2.252l1.154-9.331
			l-0.309-0.349L107.397,72.035z"/>
		<path fill="#020203" d="M88.441,81.366h2.363c0.241-1.827-0.592-2.775-1.754-2.775c-0.351,0-0.737,0.13-1.115,0.324
			c-0.13,0.113-0.142,0.233,0.133,0.371c0.555,0.282,0.511,1.086,0.484,1.329C88.51,80.965,88.483,81.127,88.441,81.366z"/>
		<path fill="#020203" d="M84.582,78.782c-1.233,0-2.267,1.12-3.114,2.584h0.002c-0.951,1.643-1.665,3.726-2.156,5.155l0.896-0.002
			c0.892-2.432,1.776-4.227,2.454-5.15h0.002c0.337-0.454,0.624-0.698,0.838-0.698c0.309,0,0.577,0.386,0.771,0.653
			c0.007,0.015,0.017,0.029,0.027,0.042l1.837-0.002c0.098-0.219,0.165-0.489,0.174-0.808
			C86.314,79.629,85.661,78.782,84.582,78.782z"/>
		<path fill="#020203" d="M40.715,62.14l0.727-6.555h-2.36l-0.815,7.454l-0.054,0.349c-0.091,0.705-0.228,1.719-0.422,2.51h-0.002
			c-0.076,0.309-0.162,0.585-0.255,0.791c0.587-0.066,1.169-0.292,1.677-0.791h-1.199l1.199-0.005
			C39.887,65.227,40.438,64.07,40.715,62.14z"/>
		<path fill="#020203" d="M72.266,58.74l0.575-3.156h0l0.118-0.656c0.386-2.156-0.27-4.197-2.697-4.197
			c-2.093,0-3.694,2.319-4.893,4.853h0.585l-0.585,0.003c-0.54,1.147-1,2.341-1.383,3.385l0.521-3.387h-2.213l-1.196,9.164
			c0.27,0.192,0.653,0.346,1.039,0.346c0.386,0,0.732-0.155,1.041-0.346c0.776-3.276,1.987-6.713,3.262-9.161
			c1.059-2.041,2.164-3.394,3.092-3.394c1.309,0,1.194,1.464,1.039,2.621l-0.115,0.771h0.002l-1.351,9.164
			c0.309,0.192,0.656,0.346,1.041,0.346c0.423,0,0.732-0.155,1.039-0.346c0.847-3.218,2.125-6.69,3.429-9.164l-1.059,0.002
			C73.057,56.648,72.627,57.748,72.266,58.74z"/>
		<path fill="#020203" d="M117.147,62.877c-0.462,0-0.771-0.233-0.656-1.194l0.776-6.099h-2.274l-0.85,6.637
			c-0.192,1.54,0.346,2.657,1.503,2.657c2.039,0,4.043-3.004,4.313-3.505l-0.346-0.386
			C119.304,61.373,118.071,62.877,117.147,62.877z"/>
		<path fill="#020203" d="M102.084,55.582c-0.538,1.132-1,2.309-1.378,3.35l0.518-3.348h0.001l0.329-2.12
			c0.307-1.886-0.501-2.928-1.695-2.928c-1.348,0-3.198,1.926-3.198,1.926l0.31,0.462c0,0,1.039-0.847,1.616-0.847
			c0.501,0,0.847,0.31,0.732,1.157l-0.314,2.351h-0.001l-1.226,9.164c0.31,0.152,0.695,0.346,1.078,0.346
			c0.386,0,0.732-0.194,1.002-0.346c0.796-3.269,2.014-6.708,3.281-9.164c1.061-2.061,2.159-3.429,3.073-3.429
			c1.309,0,1.27,1.385,1.078,2.618l-0.118,0.811h2.461l0.123-0.847c0.307-2.043-0.386-4.006-2.812-4.006
			c-2.024,0-3.645,2.304-4.858,4.851H102.084z"/>
		<path fill="#020203" d="M81.108,55.584h-2.446l-0.965,6.661c-0.27,1.926,0.462,2.964,1.655,2.964c1.616,0,3.195-1.965,3.195-1.965
			l-0.307-0.462c0,0-0.887,0.847-1.464,0.847c-0.422,0-0.769-0.268-0.656-1.115L81.108,55.584z"/>
		<path fill="#020203" d="M111.066,63.245l-0.31-0.462c0,0-0.887,0.847-1.464,0.847c-0.422,0-0.769-0.268-0.653-1.115l0.995-6.931
			h-2.459l-0.963,6.661c-0.27,1.926,0.462,2.964,1.658,2.964C109.487,65.21,111.066,63.245,111.066,63.245z"/>
		<path fill="#020203" d="M45.969,51.809c0.118-0.194,0.157-0.425,0.123-0.656h-4.121l0.808-5.882l0.187-1.351h4.566
			c1.903,0,2.77,0.076,3.1,1.351h0.612l-0.612,0.003c0.076,0.3,0.123,0.666,0.15,1.113h0.808l0.022-1.115l0.056-2.699H38.073
			l-0.083,0.656c1.771,0,2.242,0.513,2.181,2.039h-0.003c-0.012,0.297-0.044,0.629-0.093,1.005l-0.501,4.883h-1.8
			c-0.194,0.115-0.388,0.27-0.506,0.501c-0.079,0.192-0.12,0.422-0.123,0.656l2.299-0.027l-0.361,3.301h2.36l0.361-3.274h3.699
			C45.697,52.192,45.89,52.04,45.969,51.809z"/>
		<path fill="#020203" d="M59.942,52.463l0.309,0.462c0,0,1.039-0.847,1.616-0.847c0.501,0,0.847,0.31,0.732,1.157l-0.307,2.351
			h2.215l0.327-2.12c0.307-1.886-0.501-2.928-1.695-2.928C61.792,50.537,59.942,52.463,59.942,52.463z"/>
		<path fill="#020203" d="M117.877,50.822l0.464-3.812c-0.155-0.115-0.346-0.194-0.54-0.194c-0.231,0-0.386,0.079-0.54,0.194
			l-1.422,3.812h-2.466c-0.386,0.192-0.653,0.732-0.577,1.154h2.657l-0.462,3.608h2.274l0.457-3.608h2.891
			c0.386-0.192,0.693-0.693,0.577-1.154H117.877z"/>
		<path fill="#020203" d="M73.556,55.584l1.059-0.003c1.071-2.029,2.159-3.389,3.043-3.389c1.348,0,1.309,1.272,1.118,2.621
			l-0.113,0.771h2.444l0.093-0.656c0.346-2.466-0.501-4.237-2.773-4.237C76.386,50.692,74.767,53.022,73.556,55.584z"/>
		<path fill="#020203" d="M39.455,35.479c-0.42,0-0.722-0.182-0.909-0.521L36.1,34.961c0.344,1.206,1.211,1.98,2.623,1.98
			c1.253,0,2.316-0.857,3.176-1.982c1.223-1.601,2.029-3.746,2.37-4.718l-0.501,3.812c-0.047,0.329-0.061,0.631-0.052,0.906
			c0.052,1.353,0.751,2.021,1.746,2.021c1.346,0,3.156-1.926,3.156-1.926l-0.069-0.096l-0.238-0.329c0,0-0.194,0.155-0.457,0.329
			h0.435l-0.435,0.003c-0.339,0.224-0.798,0.479-1.123,0.479c-0.356,0-0.629-0.101-0.729-0.482h-1.429l1.429-0.002
			c-0.049-0.194-0.054-0.462-0.002-0.828l0.624-4.328h-0.002l0.742-5.155h-2.279c-0.511,2.051-1.046,3.755-1.579,5.155h2.535
			l-2.532,0.002c-1.068,2.815-2.125,4.416-2.982,5.155h1.122l-1.122,0.005C40.116,35.32,39.752,35.479,39.455,35.479z"/>
		<path fill="#020203" d="M122.028,34.959l-0.273-0.405c0,0-0.204,0.194-0.479,0.403h-0.005c-0.3,0.219-0.68,0.444-0.978,0.444
			c-0.28,0-0.577-0.118-0.715-0.442h-0.771l0.771-0.002c-0.069-0.167-0.096-0.388-0.057-0.673l0.71-4.482h0l0.715-4.529
			c0.037-0.216,0.057-0.425,0.061-0.621h0.002c0.047-1.518-0.739-2.304-1.795-2.304c-0.351,0-0.737,0.13-1.115,0.324
			c-0.13,0.113-0.142,0.233,0.133,0.371c0.555,0.282,0.513,1.085,0.484,1.329c-0.012,0.108-0.025,0.197-0.034,0.275h1.09
			l-1.093,0.003c-0.029,0.224-0.054,0.366-0.096,0.599l-0.73,4.553h0l-0.68,4.252c-0.054,0.327-0.071,0.626-0.061,0.904
			c0,0.002,0,0.002,0,0.002c0.054,1.331,0.803,2.021,1.795,2.021c1.771,0,3.156-1.965,3.156-1.965L122.028,34.959z"/>
		<path fill="#020203" d="M67.885,40.19c1.619,0,3.158-1.965,3.158-1.965l-0.307-0.462c0,0-1.002,0.847-1.579,0.847
			c-0.425,0-0.887-0.27-0.771-1.117l0.314-2.535l0.636-5.157h0l0.639-5.155h-2.252l-0.641,5.155h0l-0.641,5.158l-0.287,2.304
			C65.922,39.188,66.691,40.19,67.885,40.19z"/>
		<path fill="#020203" d="M24.541,34.959c0.241-0.626,0.425-1.395,0.516-2.336l0.337-2.822h-2.436l-0.449,3.714
			c-0.005,0.049-0.061,0.683-0.172,1.439h-0.003c-0.15,1.017-0.4,2.25-0.759,2.554C21.785,37.671,23.59,37.433,24.541,34.959z"/>
		<path fill="#020203" d="M151.965,34.553c0,0-0.204,0.194-0.479,0.403h-0.005c-0.3,0.219-0.68,0.444-0.98,0.444
			c-0.277,0-0.526-0.118-0.626-0.442h-1.565l1.565-0.002c-0.052-0.167-0.064-0.388-0.027-0.673l0.643-4.482h-2.461l-0.609,4.212
			c-0.047,0.344-0.064,0.658-0.052,0.945c0.059,1.319,0.727,2.021,1.71,2.021c1.616,0,3.195-1.965,3.195-1.965l-0.037-0.057
			L151.965,34.553z"/>
		<path fill="#020203" d="M86.397,34.959l1.682-0.002c0.523-0.504,0.882-0.985,1.093-1.25l-0.307-0.501
			C88.543,33.525,87.657,34.5,86.397,34.959z"/>
		<path fill="#020203" d="M94.858,36.94c1.579,0,2.81-1.039,3.35-1.579c0.115,0.462,0.462,1.619,1.771,1.619
			c1.464,0,3.119-1.926,3.119-1.926l-0.069-0.096l-0.238-0.327c0,0-0.157,0.155-0.393,0.329c-0.302,0.224-0.737,0.479-1.147,0.479
			c-0.3,0-0.518-0.167-0.619-0.481c-0.066-0.209-0.083-0.486-0.037-0.828l0.553-4.328h-2.331l-0.494,4.482
			c-0.125,0.106-0.447,0.417-0.909,0.675h2.633l-2.633,0.003c-0.383,0.216-0.86,0.398-1.402,0.398c-0.472,0-0.914-0.133-1.263-0.403
			h-0.002c-0.445-0.346-0.737-0.914-0.737-1.714c0-1.567,0.838-2.702,1.97-3.441h-2.621c-1.1,0.823-1.891,1.975-1.891,3.559
			c0,0.612,0.108,1.145,0.3,1.599C92.323,36.279,93.568,36.94,94.858,36.94z"/>
		<path fill="#020203" d="M111.653,34.959l1.68-0.002c0.523-0.504,0.882-0.985,1.093-1.25l-0.309-0.501
			C113.799,33.525,112.91,34.5,111.653,34.959z"/>
		<path fill="#020203" d="M74.637,36.981c1.771,0,3.159-1.965,3.159-1.965l-0.039-0.057h-0.002l-0.268-0.405
			c0,0-0.206,0.194-0.484,0.403H77c-0.297,0.219-0.678,0.444-0.978,0.444c-0.28,0-0.577-0.118-0.712-0.442l-0.771-0.002h0.771
			c-0.069-0.167-0.096-0.388-0.059-0.673l0.71-4.482h-2.378l-0.68,4.252c-0.052,0.327-0.071,0.626-0.061,0.904v0.002
			C72.896,36.291,73.645,36.981,74.637,36.981z"/>
		<path fill="#020203" d="M108.996,36.789c2.007,0,3.424-0.95,4.338-1.83l-1.68,0.003c-0.413,0.152-0.865,0.248-1.348,0.248
			c-0.359,0-0.702-0.083-1.017-0.25h-0.003c-1-0.528-1.714-1.876-1.714-3.986c0-0.4,0.022-0.788,0.064-1.169
			c0.243-2.206,1.154-4.021,2.196-5.158h0.002c0.759-0.828,1.589-1.297,2.279-1.297c0.58,0,0.889,0.307,1.12,0.653
			c0.115,0.179,0.194,0.408,0.268,0.644l2.233-0.003c-0.007-0.926-1.238-2.183-3.077-2.183c-1.933,0-3.701,0.816-5.057,2.181h-0.005
			c-1.294,1.302-2.208,3.102-2.523,5.16l1.884,0.002l-1.884,0.003c-0.079,0.513-0.12,1.046-0.12,1.589
			c0,1.523,0.354,2.702,0.901,3.564C106.648,36.207,107.856,36.789,108.996,36.789z"/>
		<path fill="#020203" d="M166.542,33.707c-0.616,0-0.887,0.501-0.887,1c0,0.088,0.01,0.172,0.025,0.253l2.301-0.005
			C167.443,34.355,167.082,33.707,166.542,33.707z"/>
		<path fill="#020203" d="M36.1,34.959l2.446-0.005c-0.248-0.444-0.302-1.159-0.172-2.095l0.442-3.058h-2.432l-0.395,2.942
			C35.881,33.569,35.918,34.323,36.1,34.959z"/>
		<path fill="#020203" d="M83.742,36.789c2.009,0,3.424-0.95,4.337-1.83l-1.682,0.003c-0.41,0.152-0.862,0.248-1.346,0.248
			c-0.359,0-0.702-0.083-1.017-0.25h-0.003c-1.002-0.528-1.714-1.876-1.714-3.986c0-0.4,0.022-0.788,0.064-1.169
			c0.246-2.206,1.154-4.021,2.198-5.158h-0.002c0.761-0.828,1.591-1.297,2.282-1.297c0.582,0,0.889,0.307,1.12,0.653
			c0.115,0.179,0.192,0.408,0.268,0.644l2.233-0.003c-0.01-0.926-1.238-2.183-3.077-2.183c-1.933,0-3.701,0.816-5.057,2.181h-0.005
			c-1.292,1.302-2.208,3.102-2.523,5.16l1.884,0.002l-1.884,0.003c-0.079,0.513-0.118,1.046-0.118,1.589
			c0,1.523,0.351,2.702,0.899,3.564C81.394,36.207,82.602,36.789,83.742,36.789z"/>
		<path fill="#020203" d="M94.48,24.646h-1.142l-0.484,1.398h0.656C93.676,25.658,93.875,25.046,94.48,24.646z"/>
		<path fill="#020203" d="M115.735,24.656v-0.01l-2.238,0.003c0.199,0.641,0.373,1.356,1.159,1.356
			C115.003,26.004,115.735,25.773,115.735,24.656z"/>
		<path fill="#020203" d="M90.481,24.656v-0.01l-2.235,0.003c0.199,0.641,0.371,1.356,1.157,1.356
			C89.749,26.004,90.481,25.773,90.481,24.656z"/>
		<path fill="#020203" d="M101.148,29.801l0.658-5.155h-2.341l-0.41,3.284l-1.117,0.155c-1.385,0.192-3.218,0.7-4.578,1.717h2.621
			c0.619-0.405,1.326-0.693,2.036-0.869l0.923-0.231l-0.123,1.1H101.148z"/>
		<path fill="#020203" d="M174.82,24.646c-0.074-1.339-1.84-2.223-3.311-2.223c-1.697,0-3.296,0.896-4.021,2.218h-0.002
			c-0.258,0.474-0.403,0.997-0.403,1.555c0,1.454,1.034,2.726,1.854,3.605h0.002c0.177,0.192,0.346,0.364,0.491,0.516
			c0.845,0.923,2.503,2.387,2.503,3.696c0,0.359-0.079,0.671-0.221,0.943c-0.327,0.624-0.987,0.985-1.744,0.985
			c-0.938,0-1.528-0.474-1.987-0.982l-2.301,0.002c0.248,1.235,2.257,1.98,3.559,1.98c1.537,0,3.208-0.786,4.092-1.982h0.002
			c0.4-0.54,0.641-1.162,0.641-1.83c0-1.432-0.685-2.459-1.452-3.328h-2.174l2.174-0.002c-0.368-0.417-0.754-0.801-1.09-1.176
			c-1.002-1.078-2.351-2.348-2.351-3.542c0-0.152,0.017-0.3,0.049-0.435l-0.771-0.002h0.774c0.184-0.811,0.884-1.373,1.837-1.373
			c1.049,0,1.582,0.717,2.007,1.375h0.002c0.356,0.548,0.631,1.049,1.071,1.049c0.501,0,0.771-0.383,0.771-0.96
			C174.822,24.705,174.82,24.675,174.82,24.646z"/>
		<path fill="#020203" d="M142.251,29.801l0.378,0.003h-0.378c-0.118,0.307-0.231,0.607-0.337,0.899l0.14-0.901h-2.169l-0.69,5.158
			l-0.206,1.56c0.307,0.152,0.693,0.346,1.076,0.346c0.386,0,0.732-0.194,1.002-0.346c0.128-0.516,0.263-1.039,0.408-1.56
			c0.499-1.781,1.103-3.559,1.751-5.153h0.002c0.933-2.282,1.962-4.18,2.915-5.16h-1.275
			C143.794,26.095,142.922,28.055,142.251,29.801z"/>
		<path fill="#020203" d="M22.957,29.801h2.436l0.538-4.502l0.049-0.221h2.004c0.95,0,1.886-0.155,2.763-0.432h-7.165L22.957,29.801
			z"/>
		<path fill="#020203" d="M39.455,25.388c0.037-0.265,0.054-0.513,0.054-0.742h-2.427l-0.12,0.867l-0.577,4.288h2.432L39.455,25.388
			z"/>
		<path fill="#020203" d="M74.312,25.248l-0.73,4.554h2.378l0.717-4.529c0.034-0.219,0.054-0.427,0.061-0.626
			c0.047-1.515-0.739-2.299-1.795-2.299c-0.349,0-0.734,0.13-1.113,0.324c-0.13,0.113-0.142,0.233,0.133,0.371
			c0.555,0.282,0.511,1.085,0.481,1.329c-0.012,0.108-0.025,0.197-0.034,0.275h1.093l-1.093,0.003
			C74.381,24.872,74.354,25.014,74.312,25.248z"/>
		<path fill="#020203" d="M55.764,24.641c-0.727,0.818-1.189,1.636-1.358,1.94l0.236-1.935h-2.282l-0.265,2.09
			c-0.135,0.992-0.285,2.09-0.386,3.065l1.424,0.003h-1.422c-0.071,0.693-0.118,1.329-0.118,1.822c0,1.339,0.307,2.463,0.816,3.333
			h0.005c0.747,1.272,1.923,1.982,3.186,1.982c1.712,0,3.414-0.725,4.789-1.982l-2.454,0.005c-0.641,0.526-1.309,0.823-1.913,0.823
			c-0.678,0-1.226-0.295-1.611-0.828h-0.002c-0.398-0.555-0.619-1.368-0.619-2.37c0-1.014,0.115-1.943,0.317-2.785
			c0.634-2.65,2.095-4.404,3.313-5.155h0.003c0.444-0.275,0.855-0.415,1.181-0.415c0.383,0,0.776,0.13,1.127,0.413h0
			c0.668,0.538,1.181,1.616,1.181,3.362c0,0.614-0.059,1.213-0.165,1.791c-0.415,2.257-1.567,4.144-2.812,5.16l2.454-0.003
			c1.375-1.253,2.432-3.036,2.859-5.155h-0.002c0.135-0.671,0.209-1.373,0.209-2.102c0-1.186-0.233-2.225-0.651-3.053h0.002
			c-0.651-1.294-1.746-2.068-3.085-2.068c-1.697,0-3.036,1.027-3.954,2.063H55.764z"/>
		<path fill="#020203" d="M147.421,23.925c0.599,0,0.914,0.287,1.066,0.717h-0.002c0.179,0.513,0.12,1.231,0.015,1.901L148.03,29.8
			h2.461l0.474-3.296c0.096-0.648,0.093-1.292-0.034-1.859h-1.955l1.955-0.005c-0.273-1.228-1.122-2.139-2.775-2.139
			c-1.25,0-2.346,0.874-3.284,2.144h1.272C146.593,24.183,147.025,23.925,147.421,23.925z"/>
		<path fill="#020203" d="M140.549,24.645c0.005,0.108-0.002,0.228-0.022,0.356l-0.641,4.799h2.169l0.707-4.566
			c0.034-0.206,0.054-0.403,0.061-0.587l-0.936-0.002h0.938c0.064-1.513-0.695-2.338-1.756-2.338c-1.348,0-3.198,1.926-3.198,1.926
			l0.275,0.413l0.02,0.002h-0.02l0.032,0.047c0,0,0.022-0.017,0.054-0.044h0.005c0.226-0.177,1.063-0.803,1.56-0.803
			C140.22,23.846,140.531,24.067,140.549,24.645z"/>
		<polygon fill="#020203" points="76.215,20.266 77.087,19.49 77.085,19.49 77.984,18.686 76.598,17.11 74.827,18.686 75.532,19.49 
					"/>
		<path fill="#020203" d="M47.619,22.884c-0.307-0.192-0.693-0.346-1.078-0.346c-0.386,0-0.732,0.155-1.039,0.346
			c-0.137,0.614-0.275,1.201-0.417,1.761h2.282L47.619,22.884z"/>
		<path fill="#020203" d="M96.09,24.232h3.429l-0.054,0.413h2.341l0.177-1.375l-0.346-0.346h-7.703l-0.597,1.722l1.145-0.003
			C94.845,24.402,95.353,24.232,96.09,24.232z"/>
		<path fill="#020203" d="M37.099,24.522l-0.017,0.123h2.427c-0.005-1.439-0.72-2.183-1.749-2.183c-0.258,0-0.761,0.125-1.009,0.255
			C37.261,23.228,37.099,24.522,37.099,24.522z"/>
		<path fill="#020203" d="M68.426,19.008l-0.059,0.482l-0.641,5.155h2.252l0.636-5.155l0.506-4.102l-0.307-0.346l-4.428,0.346
			l-0.079,0.577C68.426,15.965,68.656,17.043,68.426,19.008z"/>
		<polygon fill="#020203" points="119.804,19.49 120.485,20.266 121.357,19.49 122.256,18.686 120.87,17.11 119.097,18.686 
			119.802,19.49 		"/>
		<path fill="#020203" d="M53.48,15.798l-0.467,3.692l-0.653,5.155h2.284l0.634-5.155l0.899-7.312l-0.346-0.346l-4.392,0.346
			l-0.076,0.58C53.48,12.757,53.711,13.835,53.48,15.798z"/>
		<path fill="#020203" d="M161.706,22.462c-1.685,0-3.372,0.801-4.706,2.183c-1.238,1.28-2.174,3.058-2.53,5.155l1.82,0.003
			l-1.82,0.002c-0.103,0.607-0.16,1.24-0.16,1.896c0,1.336,0.346,2.429,0.894,3.257h0.002c0.791,1.194,2.002,1.83,3.188,1.83
			c1.997,0,3.409-0.948,4.323-1.83h0.003c0.553-0.528,0.926-1.032,1.142-1.292l-0.386-0.462c-0.368,0.373-1.228,1.292-2.446,1.749
			h-0.012c-0.422,0.157-0.889,0.255-1.393,0.255c-0.366,0-0.715-0.088-1.036-0.25l-1.832-0.003l1.832-0.002
			c-1.098-0.567-1.854-2.061-1.734-4.175c1.002-0.241,2.125-0.56,3.21-0.975h0.005c2.567-0.985,4.91-2.493,4.91-4.686
			c0-0.165-0.015-0.322-0.042-0.472C164.688,23.275,163.337,22.462,161.706,22.462z M162.63,24.646v0.049
			c0,1.953-1.935,4.077-5.234,5.104h-0.002c-0.152,0.047-0.305,0.091-0.462,0.133c0.005-0.042,0.01-0.083,0.017-0.128
			c0.305-2.287,1.216-4.058,2.211-5.153h0.002c0.747-0.82,1.54-1.265,2.159-1.265c0.791,0,1.287,0.553,1.312,1.26H162.63z"/>
		<path fill="#020203" d="M93.89,61.435c-0.501,0.501-1.886,2.004-3.851,2.004c-1.619,0-2.928-1.695-2.773-4.428
			c2.476-0.592,5.669-1.675,7.211-3.426l-1.37-0.002l1.37-0.002c0.57-0.649,0.914-1.39,0.914-2.23c0-1.655-1.464-2.658-3.274-2.658
			c-2.594,0-5.187,1.896-6.506,4.893h0.002c-0.56,1.272-0.889,2.741-0.889,4.35c0,3.274,2.08,5.084,4.082,5.084
			c3.198,0,4.89-2.427,5.47-3.122L93.89,61.435z M87.968,55.587c0.95-2.52,2.64-3.972,3.763-3.972c0.811,0,1.309,0.577,1.309,1.309
			c0,0.887-0.398,1.81-1.145,2.655h-0.005c-0.97,1.09-2.525,2.038-4.549,2.584C87.46,57.213,87.681,56.353,87.968,55.587z"/>
		<path fill="#020203" d="M131.267,55.589c0.01,0.192,0.012,0.388,0.01,0.589c-0.039,3.584-1.619,7.933-4.237,7.933
			c-1.771,0-2.618-2.078-2.618-4.659c0.012-1.331,0.219-2.672,0.587-3.866c0.71-2.294,2.014-4.028,3.687-4.028
			c1.496,0,2.466,1.648,2.572,4.026h2.576c-0.324-2.802-2.12-4.988-4.841-4.988c-2.879,0-5.261,2.262-6.428,4.988
			c-0.486,1.137-0.762,2.353-0.774,3.522c-0.037,3.235,1.889,5.968,4.932,5.968c4.043,0,7.123-4.544,7.162-8.471
			c0.003-0.346-0.012-0.688-0.052-1.019L131.267,55.589z"/>
		<path fill="#020203" d="M133.384,24.644l1.621-0.003c-0.842-1.326-2.183-2.181-3.886-2.181c-1.781,0-3.375,0.869-4.605,2.181
			h-0.005c-1.307,1.39-2.208,3.281-2.493,5.158h-0.002c-0.059,0.393-0.091,0.786-0.096,1.174c-0.017,1.515,0.395,2.92,1.154,3.986
			h1.444l-1.444,0.002c0.86,1.206,2.159,1.98,3.775,1.98c1.678,0,3.188-0.781,4.384-1.98h0.002c1.368-1.363,2.326-3.267,2.653-5.158
			c0.076-0.45,0.12-0.897,0.123-1.336c0.02-1.442-0.339-2.78-1.005-3.822L133.384,24.644z M133.258,29.807
			c-0.282,2.007-0.995,3.999-2.058,5.153h0.617l-0.617,0.002c-0.582,0.631-1.267,1.014-2.043,1.014
			c-0.759,0-1.348-0.381-1.776-1.017c-0.567-0.855-0.842-2.166-0.842-3.64c0.005-0.508,0.037-1.017,0.096-1.518h0.003
			c0.238-2.039,0.916-3.959,1.906-5.153h0.002c0.639-0.764,1.402-1.226,2.267-1.226c0.781,0,1.42,0.449,1.867,1.221h-0.002
			c0.476,0.823,0.734,2.009,0.715,3.402c-0.005,0.575-0.052,1.169-0.135,1.756h1.933L133.258,29.807z"/>
		<path fill="#020203" d="M24.52,16.952l-0.31,2.537l-0.624,5.155l7.162-0.003c2.64-0.84,4.762-2.817,5.229-5.153h-0.003
			c0.064-0.314,0.096-0.636,0.096-0.958c0-3.429-2.579-5.276-6.43-5.276h-7.165L22.4,13.909
			C24.52,13.909,24.787,14.641,24.52,16.952z M26.676,19.49l0.614-5.04h1.542c2.964,0,4.735,1.577,4.735,4.35
			c0,0.228-0.017,0.459-0.049,0.69c-0.336,2.316-2.306,4.701-5.072,4.701l-2.338-0.071L26.676,19.49z"/>
		<path fill="#020203" d="M58.222,56.7c0.005-0.381-0.017-0.754-0.064-1.115l-1.4-0.002h1.4c-0.354-2.756-2.139-4.89-4.829-4.89
			c-2.847,0-5.205,2.211-6.386,4.893c-0.511,1.164-0.803,2.417-0.813,3.618c-0.039,3.235,1.886,5.971,4.929,5.971
			C55.103,65.173,58.183,60.627,58.222,56.7z M51.367,64.208c-1.771,0-2.618-2.078-2.618-4.659c0.012-1.368,0.231-2.748,0.619-3.964
			c0.715-2.245,2.007-3.93,3.655-3.93c1.476,0,2.439,1.599,2.567,3.927c0.012,0.226,0.017,0.457,0.015,0.693
			C55.565,59.858,53.985,64.208,51.367,64.208z"/>
	</g>
</g>
</svg>
